<?xml version="1.0" encoding="utf-8"?>
<!-- Generator: Adobe Illustrator 25.0.1, SVG Export Plug-In . SVG Version: 6.00 Build 0)  -->
<svg version="1.1" id="Layer_1" xmlns="http://www.w3.org/2000/svg" xmlns:xlink="http://www.w3.org/1999/xlink" x="0px" y="0px"
	 viewBox="0 0 256 256" style="enable-background:new 0 0 256 256;" xml:space="preserve">
<path style="fill:#FFFFFF;" d="M240.58,256H15.42C6.91,256,0,249.09,0,240.58V15.42C0,6.91,6.91,0,15.42,0h225.15
	C249.09,0,256,6.91,256,15.42v225.15C256,249.09,249.09,256,240.58,256z"/>
<path d="M225.37,130.68l7.64,9.47c0.29,0.33,0,0.79-0.43,0.75l-28.32-4.2c-0.14,0-0.24-0.09-0.29-0.19l-7.88-9.52
	c-11.11-0.09-25.18,0.7-42.72,3.13c0.58,3.31,0.87,6.72,0.87,10.22c0,39.66-37.74,70.83-80.41,61.92
	c-24.74-5.18-44.17-23.94-49.49-47.78c-9.23-41.2,23.05-77.59,64.13-77.59c22.86,0,43.01,11.29,54.8,28.41
	c-9.28,5.6-16.58,9.24-19.33,10.59c-7.78-10.5-20.39-17.4-34.7-17.64c-23.97-0.37-43.98,18.29-44.31,41.43
	c-0.34,23.52,19.28,42.65,43.54,42.65c24.07,0,43.54-18.85,43.54-42.04c0-2.29-0.19-4.48-0.53-6.67
	c-6.81,1.26-14.06,2.75-21.75,4.53c0.05,0.33,0.05,0.65,0.1,0.98c0.63,10.54-7.25,20.02-18.07,21.6
	c-13.58,1.96-25.18-8.4-24.69-21.23c0.44-10.96,9.91-19.83,21.26-19.88c6.09-0.05,11.55,2.38,15.46,6.25
	c-3.87,1.87-12.32,5.88-15.8,7.51c-0.58,0.28-1.11,0.7-1.5,1.21c-1.16,1.49-1.26,2.75-1.21,3.27c0,0.14,0.19,0.23,0.29,0.19
	c6.91-3.03,13.82-6.16,20.59-9.33c0.43-0.23,0.92-0.42,1.35-0.61c5.75-2.71,11.45-5.51,17.01-8.31c0.48-0.23,1.01-0.51,1.5-0.75
	c6.67-3.41,13.14-6.86,19.38-10.36c1.35-0.75,2.66-1.49,3.96-2.24c11.74-6.77,22.52-13.76,31.7-20.81V73.34
	c0-0.09,0.05-0.23,0.14-0.33l19.28-21c0.29-0.33,0.82-0.14,0.82,0.28l0.34,12.83c0,0.42,0.58,0.61,0.87,0.28
	c1.5-1.87,2.9-3.73,4.11-5.55c0.19-0.28,0.58-0.28,0.77,0c0.82,1.17,1.3,1.87,1.55,2.24c0.1,0.14,0.1,0.37,0,0.51
	c-6.67,9.14-14.55,24.17-61.28,50.3c-5.85,3.27-12.32,6.72-19.48,10.36c6.48-2.1,13.63-4.48,21.02-6.91
	c13.77-4.53,28.42-9.42,41.37-13.72l6.62-11.52c0.05-0.09,0.14-0.19,0.24-0.23l27.4-9.15c0.43-0.14,0.77,0.28,0.58,0.65l-5.22,9.56
	c-0.19,0.37,0.19,0.79,0.58,0.65c3.82-1.31,6.62-2.29,7.68-2.66c0.24-0.09,0.53,0.05,0.63,0.28l1.5,3.97
	c0.1,0.23-0.05,0.51-0.29,0.61l-8.31,2.85c-0.43,0.14-0.43,0.7-0.05,0.89l10.58,4.34c0.39,0.19,0.39,0.75-0.05,0.89l-27.01,9.38
	c-0.1,0.05-0.24,0.05-0.34,0l-13.1-5.18l-40.79,14l-20.93,7.19c0.68-0.14,9.47-1.82,21.94-3.45c23.49-3.08,60.07-5.83,80.27,2.61
	c0.14,0.05,0.29,0.23,0.29,0.37c0.14,1.21,0.19,1.96,0.24,2.38c0.05,0.33-0.29,0.56-0.58,0.51c-1.3-0.28-3.48-0.93-6.76-1.63
	C225.42,129.84,225.08,130.35,225.37,130.68z"/>
</svg>
